<?xml version="1.0" encoding="UTF-8"?><svg id="Layer_1" xmlns="http://www.w3.org/2000/svg" viewBox="0 0 180 50"><defs><style>.cls-1{fill:#fff;}.cls-2{fill:#763e1a;stroke:#763e1a;}.cls-2,.cls-3,.cls-4,.cls-5,.cls-6,.cls-7,.cls-8,.cls-9,.cls-10,.cls-11{stroke-linecap:round;stroke-linejoin:round;stroke-width:.25px;}.cls-3{fill:#c0ac9d;stroke:#c0ac9d;}.cls-4{fill:#233447;stroke:#233447;}.cls-5{fill:#cc6228;stroke:#cc6228;}.cls-6{fill:#e27625;stroke:#e27625;}.cls-7{fill:#e27525;stroke:#e27525;}.cls-8{fill:#e17726;stroke:#e17726;}.cls-9{fill:#d5bfb2;stroke:#d5bfb2;}.cls-10{fill:#161616;stroke:#161616;}.cls-11{fill:#f5841f;stroke:#f5841f;}</style></defs><path class="cls-1" d="m152.9,25.19c-.85-.56-1.79-.96-2.68-1.46-.58-.32-1.19-.61-1.69-1.03-.85-.7-.68-2.07.21-2.67,1.28-.85,3.4-.38,3.62,1.36,0,.04.04.06.08.06h1.93c.05,0,.09-.04.08-.09-.1-1.2-.56-2.2-1.42-2.84-.82-.61-1.74-.94-2.73-.94-5.1,0-5.56,5.39-2.82,7.09.31.2,3.01,1.55,3.96,2.14.95.59,1.25,1.66.84,2.51-.38.78-1.35,1.31-2.33,1.25-1.07-.06-1.89-.64-2.18-1.54-.05-.16-.08-.48-.08-.61,0-.04-.04-.08-.08-.08h-2.09s-.08.04-.08.08c0,1.51.38,2.35,1.4,3.11.96.72,2.02,1.02,3.11,1.02,2.86,0,4.34-1.61,4.64-3.29.26-1.64-.22-3.11-1.69-4.09Z"/><path class="cls-1" d="m62.03,17.86h-1.94s-.06.02-.08.05l-1.72,5.65c-.03.08-.13.08-.15,0l-1.72-5.65s-.04-.05-.08-.05h-3.2s-.08.04-.08.07v14.43s.04.07.08.07h2.09s.08-.04.08-.07v-10.96c0-.09.13-.1.15-.02l1.73,5.69.13.4s.04.05.08.05h1.6s.06-.03.08-.05l.13-.4,1.73-5.69c.03-.09.15-.06.15.02v10.96s.04.07.08.07h2.09s.08-.04.08-.07v-14.43s-.04-.07-.08-.07h-1.23Z"/><path class="cls-1" d="m120.85,17.86s-.06.02-.08.05l-1.72,5.65c-.03.08-.13.08-.15,0l-1.72-5.65s-.04-.05-.08-.05h-3.18s-.08.04-.08.07v14.43s.04.07.08.07h2.09s.08-.04.08-.07v-10.96c0-.09.13-.1.15-.02l1.73,5.69.13.4s.04.05.08.05h1.6s.06-.03.08-.05l.13-.4,1.73-5.69c.03-.09.15-.06.15.02v10.96s.04.07.08.07h2.09s.08-.04.08-.07v-14.43s-.04-.07-.08-.07h-3.18Z"/><path class="cls-1" d="m93.86,17.86h-9.89s-.08.04-.08.07v1.8s.04.08.08.08h3.82v12.55s.04.07.08.07h2.09s.08-.04.08-.07v-12.55h3.82s.08-.04.08-.08v-1.8s-.02-.07-.08-.07Z"/><path class="cls-1" d="m106.21,32.44h1.9c.05,0,.09-.05.08-.1l-3.93-14.48s-.04-.05-.08-.05h-2.73s-.06.03-.08.05l-3.94,14.48s.03.1.08.1h1.9s.06-.02.08-.05l1.14-4.21s.04-.05.08-.05h4.21s.06.02.08.05l1.14,4.21s.05.05.08.05Zm-5-6.37l1.53-5.64c.02-.07.13-.07.15,0l1.53,5.64s-.03.1-.08.1h-3.06c-.05,0-.09-.05-.08-.1Z"/><path class="cls-1" d="m138.69,32.44h1.9c.05,0,.09-.05.08-.1l-3.93-14.48s-.04-.05-.08-.05h-2.73s-.06.03-.08.05l-3.93,14.48s.03.1.08.1h1.91s.06-.02.08-.05l1.14-4.21s.04-.05.08-.05h4.21s.06.02.08.05l1.14,4.21s.04.05.08.05Zm-5-6.37l1.53-5.64c.03-.07.13-.07.15,0l1.53,5.64s-.03.1-.08.1h-3.06c-.05,0-.09-.05-.08-.1Z"/><path class="cls-1" d="m71.83,30.3v-4.48s.04-.07.08-.07h5.58s.08-.04.08-.08v-1.8s-.04-.07-.08-.07h-5.58s-.08-.04-.08-.08v-3.82s.04-.08.08-.08h6.34s.08-.04.08-.07v-1.8s-.04-.08-.08-.08h-8.58s-.08.04-.08.08v14.41s.04.08.08.08h8.85s.08-.04.08-.08v-1.9s-.04-.08-.08-.08h-6.62s-.06-.04-.06-.09Z"/><path class="cls-1" d="m172.02,32.31l-7.24-7.46s-.03-.07,0-.1l6.52-6.75c.05-.05.01-.13-.05-.13h-2.67s-.04.01-.05.03l-5.53,5.73c-.05.05-.13.01-.13-.05v-5.62s-.04-.08-.08-.08h-2.09s-.08.04-.08.08v14.42s.04.08.08.08h2.09s.08-.04.08-.08v-6.35c0-.06.09-.1.13-.05l6.27,6.45s.04.03.05.03h2.67c.05-.01.09-.1.04-.14Z"/><path class="cls-8" d="m38.78,10.1l-12.67,9.37,2.36-5.52,10.31-3.85Z"/><path class="cls-6" d="m9.56,10.1l12.56,9.46-2.24-5.61-10.31-3.85Z"/><path class="cls-6" d="m34.22,31.84l-3.37,5.15,7.22,1.99,2.07-7.02-5.92-.11Z"/><path class="cls-6" d="m8.22,31.95l2.06,7.02,7.21-1.99-3.36-5.15-5.9.11Z"/><path class="cls-6" d="m17.09,23.14l-2.01,3.03,7.14.32-.24-7.69-4.9,4.34Z"/><path class="cls-6" d="m31.25,23.14l-4.98-4.42-.16,7.77,7.14-.32-2.01-3.03Z"/><path class="cls-6" d="m17.48,36.99l4.32-2.09-3.72-2.9-.6,4.99Z"/><path class="cls-6" d="m26.54,34.9l4.31,2.09-.59-4.99-3.72,2.9Z"/><path class="cls-9" d="m30.85,36.99l-4.31-2.09.35,2.8-.04,1.19,4-1.9Z"/><path class="cls-9" d="m17.48,36.99l4.01,1.9-.03-1.19.34-2.8-4.32,2.09Z"/><path class="cls-4" d="m21.56,30.15l-3.58-1.05,2.53-1.16,1.05,2.21Z"/><path class="cls-4" d="m26.78,30.15l1.05-2.21,2.54,1.16-3.6,1.05Z"/><path class="cls-5" d="m17.48,36.99l.63-5.15-3.99.11,3.36,5.04Z"/><path class="cls-5" d="m30.23,31.84l.61,5.15,3.37-5.04-3.99-.11Z"/><path class="cls-5" d="m33.25,26.16l-7.14.32.66,3.66,1.05-2.21,2.54,1.16,2.88-2.94Z"/><path class="cls-5" d="m17.98,29.1l2.53-1.16,1.05,2.21.66-3.66-7.14-.32,2.89,2.94Z"/><path class="cls-7" d="m15.08,26.16l3,5.84-.1-2.9-2.89-2.94Z"/><path class="cls-7" d="m30.37,29.1l-.11,2.9,3-5.84-2.88,2.94Z"/><path class="cls-7" d="m22.23,26.49l-.66,3.66.84,4.32.19-5.7-.36-2.29Z"/><path class="cls-7" d="m26.11,26.49l-.35,2.28.18,5.71.84-4.32-.66-3.66Z"/><path class="cls-11" d="m26.78,30.15l-.84,4.32.6.43,3.72-2.9.11-2.9-3.6,1.05Z"/><path class="cls-11" d="m17.98,29.1l.1,2.9,3.72,2.9.6-.43-.84-4.32-3.58-1.05Z"/><path class="cls-3" d="m26.85,38.89l.04-1.19-.33-.28h-4.79l-.31.28.03,1.19-4.01-1.9,1.4,1.15,2.84,1.96h4.87l2.86-1.96,1.39-1.15-4,1.9Z"/><path class="cls-10" d="m26.54,34.9l-.6-.42h-3.53l-.6.42-.34,2.8.31-.28h4.79l.33.28-.35-2.8Z"/><path class="cls-2" d="m39.32,20.09l1.07-5.17-1.6-4.81-12.24,9.06,4.71,3.97,6.65,1.94,1.47-1.71-.64-.46,1.02-.92-.78-.6,1.02-.78-.66-.51Z"/><path class="cls-2" d="m7.95,14.91l1.08,5.17-.69.51,1.03.78-.78.6,1.02.92-.64.46,1.47,1.71,6.65-1.94,4.71-3.97-12.24-9.06-1.6,4.81Z"/><path class="cls-11" d="m37.9,25.07l-6.65-1.94,2.01,3.03-3,5.84,3.96-.05h5.92l-2.23-6.88Z"/><path class="cls-11" d="m17.09,23.14l-6.65,1.94-2.22,6.88h5.9l3.96.05-3-5.84,2.01-3.03Z"/><path class="cls-11" d="m26.11,26.49l.43-7.33,1.93-5.21h-8.6l1.93,5.21.43,7.33.16,2.3v5.69h3.55v-5.69s.18-2.3.18-2.3Z"/></svg>