<?xml version="1.0" encoding="UTF-8"?><svg id="Layer_1" xmlns="http://www.w3.org/2000/svg" xmlns:xlink="http://www.w3.org/1999/xlink" viewBox="0 0 180 50"><defs><style>.cls-1{fill:none;}.cls-2{clip-path:url(#clippath);}.cls-3{mask:url(#mask);}.cls-4{fill:#fff;}.cls-5{fill:#8b8b8b;}</style><clipPath id="clippath"><rect class="cls-1" x="24.1" y="10" width="131.8" height="30"/></clipPath><mask id="mask" x="24.1" y="10" width="131.56" height="29.91" maskUnits="userSpaceOnUse"><g id="mask0_3340_1171"><path class="cls-4" d="m155.66,10H24.1v29.91h131.56V10Z"/></g></mask></defs><g class="cls-2"><g class="cls-3"><path class="cls-4" d="m63.01,19.7v4.13h5.02v1.7h-5.02v4.23h5.6v1.8h-7.8v-13.62h7.8v1.78h-5.6Zm13.08,9.94v1.91h-1.35c-1.13,0-1.99-.27-2.58-.82-.59-.55-.88-1.46-.88-2.73v-5.21h-1.52v-1.87h1.52v-2.64h2.22v2.64h2.57v1.87h-2.57v5.25c0,.6.11,1.02.34,1.25.23.23.62.35,1.19.35h1.06Zm8.01-8.9c1.24,0,2.23.4,2.97,1.2.75.8,1.12,1.94,1.12,3.42v6.19h-2.2v-5.96c0-.95-.24-1.69-.73-2.21-.26-.27-.57-.47-.92-.61s-.72-.19-1.09-.17c-.39-.02-.78.05-1.14.19-.36.14-.69.36-.96.65-.53.56-.79,1.38-.79,2.46v5.65h-2.2v-14.28h2.2v5.98c.25-.76.76-1.41,1.43-1.85.69-.44,1.5-.67,2.32-.66Zm16.54,4.98c0,.32-.02.63-.08.95h-8.18c.04,1.09.34,1.9.91,2.43.57.53,1.33.81,2.1.79.67.02,1.32-.18,1.86-.56.5-.35.83-.89.94-1.49h2.35c-.13.72-.44,1.41-.89,1.99-.46.59-1.07,1.06-1.76,1.36-.76.34-1.58.5-2.41.49-.95.02-1.89-.21-2.73-.66-.79-.44-1.44-1.09-1.86-1.89-.47-.9-.7-1.9-.68-2.91-.02-1.01.21-2,.68-2.89.42-.8,1.07-1.45,1.86-1.89.84-.45,1.78-.67,2.73-.66.95-.02,1.89.2,2.73.65.76.41,1.38,1.02,1.8,1.78.42.77.64,1.64.63,2.52h0Zm-2.22-.06c.05-.6-.08-1.21-.36-1.75-.24-.45-.62-.81-1.08-1.04-.47-.23-.98-.34-1.5-.34-.8-.02-1.57.26-2.16.79-.58.53-.89,1.31-.95,2.34h6.04Zm6.54-2.66c.35-.68.88-1.26,1.54-1.65.7-.41,1.5-.62,2.32-.61v2.39h-.66c-.96,0-1.74.23-2.33.7-.59.47-.88,1.24-.88,2.33v5.39h-2.2v-10.63h2.2v2.08Zm8.99-2.22c1.25,0,2.25.32,3,.96.76.65,1.25,1.56,1.38,2.56h-2.08c-.07-.54-.33-1.04-.74-1.4-.45-.37-1.03-.56-1.61-.53-.46-.03-.92.11-1.28.4-.15.13-.27.3-.35.48-.08.19-.11.39-.11.59,0,.15.02.3.08.44.06.14.14.27.25.37.24.22.52.38.82.48.46.15.93.28,1.4.39.66.14,1.31.33,1.94.56.5.19.93.51,1.27.92.38.49.56,1.09.53,1.71.01.41-.07.83-.25,1.2-.18.38-.44.7-.76.96-.68.55-1.59.83-2.73.83-1.33,0-2.4-.31-3.21-.93-.41-.31-.75-.7-1-1.14-.25-.44-.41-.93-.47-1.44h2.14c.03.28.11.54.24.78.13.24.31.45.53.62.51.38,1.14.57,1.78.54.45.03.9-.12,1.24-.41.15-.13.26-.3.34-.48.08-.18.12-.38.11-.58,0-.16-.02-.33-.08-.48-.06-.15-.15-.29-.27-.41-.25-.23-.55-.4-.87-.51-.47-.15-.94-.28-1.43-.38-.64-.14-1.27-.32-1.88-.54-.48-.18-.91-.48-1.24-.88-.36-.47-.54-1.06-.51-1.65-.01-.42.07-.83.25-1.21.18-.38.44-.71.76-.98.68-.56,1.61-.84,2.81-.84h0Zm11.42,0c1.38,0,2.52.36,3.42,1.09.91.74,1.51,1.8,1.68,2.96h-2.34c-.1-.62-.44-1.19-.94-1.57-.54-.39-1.2-.59-1.86-.57-.4,0-.79.07-1.16.22-.37.15-.69.39-.96.68-.57.6-.85,1.48-.85,2.63s.28,2.04.85,2.64c.27.29.6.53.96.68.37.16.76.23,1.16.22.67.03,1.33-.18,1.86-.58.5-.39.83-.96.94-1.58h2.34c-.17,1.16-.77,2.22-1.68,2.97-.9.73-2.04,1.1-3.42,1.1-.95.02-1.89-.21-2.73-.66-.79-.44-1.44-1.09-1.86-1.89-.47-.9-.7-1.9-.68-2.91-.02-1.01.21-2,.68-2.89.42-.8,1.07-1.45,1.86-1.89.84-.45,1.78-.67,2.73-.66h0Zm11.48,0c.88-.03,1.74.22,2.47.71.67.46,1.18,1.12,1.45,1.89v-2.47h2.2v10.63h-2.2v-2.47c-.27.77-.78,1.43-1.45,1.89-.73.49-1.59.74-2.47.71-.87.01-1.73-.21-2.48-.66-.74-.45-1.33-1.11-1.71-1.89-.43-.91-.64-1.91-.62-2.91-.02-1,.19-1.99.62-2.89.37-.78.97-1.44,1.71-1.89.75-.44,1.61-.67,2.48-.66h0Zm.68,1.93c-.43-.02-.87.05-1.27.22-.4.16-.77.41-1.07.72-.59.62-.88,1.48-.88,2.58s.29,1.95.88,2.58c.3.31.67.56,1.07.72.4.16.84.24,1.27.22.58,0,1.16-.14,1.66-.43.49-.29.89-.72,1.16-1.23.29-.57.44-1.21.42-1.85.01-.64-.13-1.27-.42-1.84-.26-.51-.66-.94-1.16-1.24-.5-.29-1.08-.44-1.66-.44h0Zm14.03-1.97c1.24,0,2.23.4,2.97,1.2s1.12,1.94,1.12,3.42v6.19h-2.2v-5.96c0-.95-.24-1.69-.73-2.21-.26-.27-.57-.47-.92-.61-.35-.13-.72-.19-1.09-.17-.39-.02-.78.05-1.14.19-.36.14-.69.36-.96.65-.53.56-.79,1.38-.79,2.46v5.65h-2.2v-10.63h2.2v2.34c.25-.76.76-1.41,1.43-1.85.69-.44,1.5-.67,2.32-.66h0Z"/><path class="cls-4" d="m30.32,24.24c0-.17.03-.33.1-.49.06-.15.16-.29.28-.41.12-.12.26-.21.41-.27.15-.06.32-.1.49-.09h2.11c.34,0,.66.14.9.38.24.24.37.56.37.9v7.99c.24-.07.54-.15.88-.22.23-.05.44-.19.59-.37.15-.19.23-.42.23-.66v-9.91c0-.34.13-.66.37-.9.24-.24.56-.37.9-.37h2.12c.34,0,.66.13.9.37s.37.56.37.9v9.19s.53-.21,1.05-.43c.19-.08.36-.22.47-.39.12-.17.18-.38.18-.59v-10.96c0-.34.13-.66.37-.9.24-.24.56-.37.9-.37h2.12c.34,0,.66.13.9.37.24.24.37.56.37.9v9.03c1.83-1.33,3.69-2.93,5.17-4.85.21-.28.36-.61.41-.95.06-.35.03-.7-.09-1.04-.68-1.97-1.77-3.77-3.19-5.29-1.42-1.52-3.14-2.73-5.05-3.55-1.91-.82-3.98-1.23-6.06-1.2-2.08.02-4.13.48-6.03,1.35-1.89.86-3.58,2.11-4.97,3.67-1.38,1.55-2.43,3.38-3.06,5.36-.64,1.98-.85,4.07-.63,6.14.22,2.07.87,4.07,1.9,5.87.18.31.45.56.77.73.32.17.68.24,1.04.2.4-.04.9-.09,1.49-.15.26-.03.5-.15.67-.35.17-.19.27-.44.27-.7v-7.93Z"/><path class="cls-5" d="m30.27,37.05c2.23,1.62,4.87,2.6,7.62,2.81,2.75.22,5.51-.33,7.97-1.58,2.46-1.25,4.52-3.16,5.96-5.51,1.44-2.35,2.2-5.06,2.2-7.82,0-.34-.02-.68-.04-1.02-5.46,8.15-15.55,11.96-23.71,13.12"/></g></g></svg>