<?xml version="1.0" encoding="UTF-8"?><svg id="Layer_1" xmlns="http://www.w3.org/2000/svg" viewBox="0 0 180 50"><defs><style>.cls-1{fill:#fff;}.cls-2{fill:#365bd2;}</style></defs><g id="Layer_2"><g id="Layer_1-2"><path class="cls-1" d="m74.7,24.81c-.12-2.92,2.15-5.38,5.07-5.5.01,0,.03,0,.04,0h.22c2.7,0,4.29,1.59,4.76,3.44l-1.68.56c-.31-1.43-1.62-2.42-3.08-2.32-1.75,0-3.5,1.27-3.5,3.84s1.71,3.8,3.52,3.8c1.46.04,2.76-.92,3.15-2.33l1.64.53c-.58,2.15-2.58,3.61-4.81,3.51-2.89.05-5.28-2.25-5.34-5.14,0-.13,0-.26,0-.39Z"/><path class="cls-1" d="m88.1,30.1h-1.73v-10.82h1.73v4.23c.51-.61,1.27-.94,2.06-.91,1.79,0,2.64,1.29,2.64,2.89v4.61h-1.67v-4.3c.1-.76-.42-1.47-1.18-1.59-.1-.01-.21-.01-.31,0-.84,0-1.51.68-1.51,1.51h0s0,.09,0,.13l-.03,4.25Z"/><path class="cls-1" d="m96.7,25.93l1.86-.29c.42-.05.53-.27.53-.53,0-.61-.41-1.11-1.37-1.11-.76-.06-1.42.5-1.49,1.25v.08l-1.59-.35c.13-1.26,1.27-2.38,3.06-2.38,2.24,0,3.09,1.27,3.09,2.75v3.61c0,.39.03.78.09,1.17h-1.59c-.06-.31-.08-.62-.07-.93-.49.75-1.34,1.19-2.24,1.15-1.26.1-2.36-.83-2.46-2.08v-.11c-.03-1.34.93-2.06,2.18-2.23Zm2.4,1.17v-.33l-1.9.29c-.54.02-.96.45-.97.99,0,.53.45.96.98.95,0,0,.01,0,.02,0h.08c.91.09,1.72-.56,1.81-1.47,0,0,0,0,0-.01,0-.14,0-.27-.03-.41h0Z"/><path class="cls-1" d="m103.75,19.13c.62,0,1.14.49,1.15,1.12,0,0,0,0,0,0h0c0,.63-.51,1.13-1.13,1.13-.63,0-1.13-.51-1.13-1.13,0-.62.5-1.12,1.12-1.13h0Zm-.85,11v-7.31h1.73v7.28l-1.73.03Z"/><path class="cls-1" d="m108.59,30.1h-1.73v-7.28h1.69v.97c.45-.76,1.27-1.21,2.15-1.18,1.78,0,2.64,1.29,2.64,2.89v4.6h-1.73v-4.3c0-.89-.41-1.62-1.5-1.62-.85,0-1.53.7-1.52,1.54h0v4.38Z"/><path class="cls-1" d="m115.43,30.1v-10.82h1.73v10.82h-1.73Z"/><path class="cls-1" d="m120.26,19.13c.62,0,1.13.5,1.13,1.12,0,.62-.5,1.13-1.12,1.13-.62,0-1.13-.5-1.13-1.12,0,0,0,0,0-.01,0-.62.5-1.12,1.12-1.12Zm-.85,11v-7.31h1.72v7.28l-1.72.03Z"/><path class="cls-1" d="m125.11,30.1h-1.73v-7.28h1.69v.97c.45-.76,1.27-1.21,2.15-1.18,1.78,0,2.64,1.29,2.64,2.89v4.6h-1.73v-4.3c.1-.76-.42-1.47-1.18-1.59-.11-.01-.21-.01-.32,0-.84,0-1.52.69-1.52,1.53,0,.06,0,.12,0,.19v4.17Z"/><path class="cls-1" d="m135.77,25.89l3.05,4.23h-2.12l-2.12-3-.89.94v2.03h-1.72v-10.82h1.72v6.48l2.79-2.94h2.3l-3.02,3.07Z"/><path class="cls-2" d="m54.16,16.35l7.5,4.3v8.65l-7.48,4.33-7.49-4.29v-8.65l7.47-4.35m0-6.35l-2.75,1.59-7.49,4.35-2.75,1.59v15l2.75,1.59,7.5,4.3,2.75,1.59,2.75-1.59,7.47-4.34,2.75-1.59v-15.02l-2.75-1.59-7.49-4.29-2.75-1.59h.01Z"/></g></g></svg>