<?xml version="1.0" encoding="UTF-8"?><svg id="Layer_1" xmlns="http://www.w3.org/2000/svg" xmlns:xlink="http://www.w3.org/1999/xlink" viewBox="0 0 180 50"><defs><style>.cls-1{fill:none;}.cls-2{clip-path:url(#clippath);}.cls-3,.cls-4{fill:#fff;}.cls-5{fill:#3164e4;}.cls-5,.cls-4{fill-rule:evenodd;}</style><clipPath id="clippath"><rect class="cls-1" x="28.81" y="10" width="122.37" height="30"/></clipPath></defs><g class="cls-2"><path class="cls-4" d="m116.7,12.9c0,1.22-1.01,2.2-2.23,2.2s-2.29-.98-2.29-2.2,1.04-2.2,2.29-2.2,2.23.98,2.23,2.2Zm-.83,19.52h-2.86c-.24,0-.39-.15-.39-.39v-14.1c0-.24.15-.39.39-.39h2.86c.27,0,.39.15.39.39v14.1c0,.24-.15.39-.39.39Zm-29.43-9.05h7.29c.18,0,.3-.12.27-.3-.27-1.73-1.93-2.95-4.02-2.95s-3.63,1.22-3.87,2.92c-.03.18.12.33.33.33Zm-4.02,1.52c0-4.43,3.21-7.68,7.59-7.68s7.77,2.89,7.47,8.27c0,.33-.24.57-.59.57h-10.53c-.21,0-.3.15-.27.36.15,1.91,1.87,3.36,3.99,3.36,1.55,0,2.86-.71,3.51-1.9.09-.21.21-.3.42-.3h2.83c.24,0,.39.18.3.48-.86,2.8-3.6,4.7-6.78,4.7-4.67,0-7.91-3.21-7.91-7.85Zm-1.62,7.53h-11.96c-.24,0-.39-.15-.38-.39v-1.76c0-.24.06-.48.24-.68l7.38-8.63c.15-.18.03-.42-.18-.42h-6.81c-.24,0-.39-.15-.39-.39v-2.23c0-.24.15-.39.39-.39h11.45c.24,0,.39.15.39.39v1.7c0,.3-.09.51-.3.74l-7.41,8.63c-.15.18,0,.42.21.42h7.38c.24,0,.39.15.39.39v2.23c0,.24-.15.39-.39.39Zm28.97-14.88h-1.96c-1.82,0-2.97.65-3.6,2.05-.18.39-.68.3-.68-.09v-1.58c0-.24-.15-.39-.39-.39h-2.5c-.24,0-.39.15-.39.39v14.1c0,.24.15.39.39.39h2.86c.27,0,.39-.18.39-.39v-10.06c0-.36.27-.71.65-.71h5.24c.24,0,.39-.15.39-.39v-2.95c0-.24-.15-.39-.38-.39Zm16.86,12.08c-2.47,0-4.23-1.96-4.23-4.7s1.76-4.58,4.23-4.58,4.25,1.9,4.25,4.58-1.79,4.7-4.25,4.7Zm.03,3.12c4.58,0,7.85-3.27,7.85-7.85s-3.27-7.68-7.85-7.68-7.91,3.21-7.91,7.68,3.3,7.85,7.91,7.85Zm24.5-9.43v8.72c0,.24-.15.39-.39.39h-2.86c-.24,0-.39-.15-.39-.39v-8.06c0-2.32-1.16-3.63-3.21-3.63-2.38,0-3.66,1.37-3.66,4.02v7.68c0,.24-.15.39-.39.39h-2.86c-.24,0-.39-.15-.39-.39v-14.1c0-.24.15-.39.39-.39h2.5c.24,0,.39.15.39.42v1.13c0,.36.36.45.59.15,1.01-1.31,2.59-2.02,4.46-2.02,3.45,0,5.8,2.14,5.8,6.1Z"/><path class="cls-3" d="m50.31,10h-13.02c-4.68,0-8.47,3.79-8.47,8.47v13.02c0,4.68,3.79,8.47,8.47,8.47h13.02c4.68,0,8.47-3.79,8.47-8.47v-13.02c0-4.68-3.79-8.47-8.47-8.47Z"/><path class="cls-5" d="m45.93,24.59c-2.91-1.57-6.45-3.61-9.12-5.28-.79-.57-.39-1.77.56-1.77h13.19c.74,0,1.23.82.86,1.44-.88,1.53-2.18,3.48-3.26,5.02-.58.83-1.53.97-2.23.59Zm-4.25.51c2.81,1.5,6.76,3.78,9.56,5.51.87.53.52,1.82-.49,1.82-1.65,0-4.34,0-7.02,0-2.65,0-5.28,0-6.89,0-.81,0-1.22-.84-.88-1.42,1.16-1.98,2.47-3.97,3.55-5.46.48-.66,1.46-.81,2.17-.44Z"/></g></svg>